<svg xmlns="http://www.w3.org/2000/svg" viewBox="0 0 128 128">
  <rect width="128" height="128" rx="8" fill="#3178c6"/>
  <path d="M47 58h30v8H67v34h-10V66H47zM83 100c-2.5 0-5-.5-7-1.5s-3.5-2.5-4.5-4.5l7-4c.5 1 1.2 1.8 2 2.3s1.8.8 3 .8c1 0 1.8-.2 2.5-.7s1-1 1-1.8c0-.8-.4-1.5-1.2-2s-2.2-1-4-1.5c-2-.6-3.6-1.2-5-2s-2.4-1.8-3.2-3-.8-2.8-.8-4.5c0-2 .5-3.6 1.5-5s2.3-2.5 4-3.2 3.5-1 5.5-1c2.3 0 4.3.5 6 1.5s3 2.5 4 4.5l-7 3.8c-.4-.8-1-1.5-1.7-2s-1.5-.7-2.5-.7c-.8 0-1.5.2-2 .6s-.8 1-.8 1.7c0 .7.4 1.3 1.2 1.8s2 1 3.8 1.5c2 .6 3.7 1.3 5 2s2.5 1.8 3.3 3 1 2.8 1 4.6c0 2-.5 3.7-1.5 5.2s-2.5 2.6-4.2 3.4-3.7 1.2-5.8 1.2z" fill="#fff"/>
</svg>
